<?xml version="1.0" encoding="UTF-8" standalone="no"?>
<!DOCTYPE svg PUBLIC "-//W3C//DTD SVG 1.1//EN" "http://www.w3.org/Graphics/SVG/1.1/DTD/svg11.dtd">
<svg width="100%" height="100%" viewBox="0 0 16 16" version="1.1" xmlns="http://www.w3.org/2000/svg" xmlns:xlink="http://www.w3.org/1999/xlink" xml:space="preserve" xmlns:serif="http://www.serif.com/" style="fill:currentColor;fill-rule:evenodd;clip-rule:evenodd;stroke-linejoin:round;stroke-miterlimit:2;">
    <g transform="matrix(-0.00817049,0,0,0.00817049,16.3676,-0.504307)">
        <path fill="currentColor" d="M63.339,61.723L191.1,1431.11L1063.38,1545.1L1980.38,2019.99L1457.84,1506.03L1758.65,1538.87L1984.92,239.573L63.339,61.723ZM1058.46,740.129C1137.2,766.733 1190.27,806.763 1217.66,860.221C1254.19,935.546 1290.12,978.235 1325.43,988.286C1343.05,993.97 1359.62,992.338 1375.11,983.389C1390.61,974.44 1404.48,960.389 1416.73,941.235C1428.98,922.082 1439.27,899.328 1447.6,872.972C1455.94,846.616 1461.35,818.983 1463.83,790.074C1465.45,762.702 1464.35,732.151 1460.53,698.42C1456.71,664.689 1450.67,632.425 1442.41,601.628C1434.15,570.83 1423.98,544.024 1411.89,521.208C1399.8,498.392 1386.15,484.47 1370.93,479.441C1355.42,474.925 1343.08,477.375 1333.92,486.791C1324.76,496.207 1316.41,507.579 1308.85,520.908C1304.79,528.085 1298.81,535.558 1290.93,543.326C1281.65,552.339 1271.31,559.251 1259.9,564.059C1248.48,568.868 1235.27,571.338 1220.25,571.468C1205.24,571.598 1188.28,569.316 1169.4,564.621C1150.52,559.927 1128.55,552.693 1103.51,542.921C1090.46,537.743 1080.51,532.927 1073.65,528.472C1066.79,524.017 1061.88,519.798 1058.93,515.813C1055.98,511.829 1054.31,507.715 1053.94,503.471C1053.56,499.227 1053.33,494.727 1053.25,489.97C1053.9,480.236 1055.8,469.842 1058.93,458.788C1062.07,447.734 1066.16,436.531 1071.21,425.182C1076.25,413.832 1081.82,402.774 1087.92,392.009C1094.03,381.243 1100.22,371.538 1106.51,362.894C1118.45,347.95 1133.09,336.843 1150.41,329.575C1167.74,322.306 1193.8,319.856 1228.6,322.224C1245.27,324.689 1263.67,328.104 1283.78,332.468C1303.9,336.831 1324.65,342.218 1346.03,348.629C1367.42,355.04 1388.97,362.384 1410.69,370.66C1432.41,378.937 1453.09,387.818 1472.74,397.305C1498.73,410.296 1525.26,426.945 1552.33,447.252C1579.39,467.56 1603.15,492.774 1623.61,522.897C1649.68,561.501 1670.49,601.74 1686.02,643.614C1701.56,685.488 1712.09,727.296 1717.62,769.038C1723.15,810.78 1724,851.284 1720.16,890.55C1716.32,929.816 1707.88,965.869 1694.82,998.707C1681.77,1031.55 1664.63,1059.94 1643.41,1083.9C1622.18,1107.86 1596.88,1125.53 1567.49,1136.91C1558.13,1141.17 1547.73,1144.19 1536.3,1145.96C1524.87,1147.73 1512.87,1148.68 1500.29,1148.81C1487.7,1148.93 1475.09,1148.2 1462.44,1146.61C1449.79,1145.02 1437.56,1142.98 1425.76,1140.51C1399.02,1132.5 1369.16,1123.26 1336.16,1112.81C1303.17,1102.35 1268.09,1088.22 1230.92,1070.41C1212.87,1061.8 1195.13,1052.02 1177.71,1041.07C1160.28,1030.11 1143.9,1018.55 1128.55,1006.39C1113.21,994.226 1099.28,982.006 1086.78,969.729C1074.28,957.451 1063.78,945.94 1055.27,935.194C1039.9,913.261 1026.25,888.91 1014.32,862.143C1002.39,835.375 994.885,809.37 991.817,784.127C990.881,773.517 990.773,764.205 991.492,756.191C992.212,748.177 994.819,742.044 999.313,737.794C1003.81,733.543 1010.85,731.54 1020.44,731.783C1030.04,732.026 1042.71,734.808 1058.46,740.129ZM729.967,1113.58C689.071,1101.45 648.174,1086.89 607.278,1069.91C566.381,1052.92 527.41,1034.12 490.362,1013.49C453.315,992.87 419.154,970.83 387.88,947.376C356.606,923.921 330.385,900.062 309.215,875.798C296.224,861.24 284.316,846.278 273.49,830.911C262.665,815.544 254.004,799.57 247.509,782.99C241.014,766.41 237.044,749.021 235.601,730.824C234.158,712.626 236.323,693.013 242.096,671.985C254.125,630.737 269.762,595.959 289.007,567.651C308.252,539.344 329.182,513.463 351.795,490.008C370.078,472.215 391.489,459.881 416.027,453.006C440.565,446.132 466.907,443.099 495.053,443.907C523.2,444.716 552.669,448.558 583.462,455.433C614.254,462.307 644.807,471.204 675.118,482.122C705.43,493.041 734.899,505.173 763.527,518.518C792.154,531.863 818.496,545.005 842.553,557.946C848.808,561.181 854.822,578.368 860.596,609.506C866.369,640.644 872.383,679.668 878.638,726.577C884.893,773.487 891.148,824.643 897.403,880.044C903.657,935.446 910.032,989.23 916.528,1041.4C923.023,1093.56 929.759,1140.47 936.735,1182.12C943.712,1223.78 950.809,1253.9 958.026,1272.51C963.318,1293.54 962.957,1310.52 956.943,1323.46C950.929,1336.4 941.667,1347.12 929.157,1355.61C916.648,1364.1 901.612,1370.98 884.051,1376.23C866.49,1381.49 848.808,1386.95 831.006,1392.61C813.204,1396.65 801.055,1396.65 794.56,1392.61C788.065,1388.57 782.892,1380.08 779.043,1367.13C772.307,1325.89 764.85,1284.23 756.67,1242.18C748.491,1200.12 739.59,1157.26 729.967,1113.58ZM683.778,904.914C673.193,860.431 663.09,818.172 653.467,778.137C643.844,738.103 633.74,699.888 623.155,663.492C599.58,652.978 576.606,645.092 554.233,639.835C531.86,634.578 511.652,631.748 493.61,631.343C475.567,630.939 460.652,632.759 448.864,636.802C437.076,640.846 430.22,646.912 428.296,655C423.003,669.558 424.567,687.756 432.987,709.593C441.407,731.43 456.442,754.076 478.093,777.531C499.744,800.986 527.77,824.036 562.172,846.682C596.573,869.328 637.108,888.739 683.778,904.914Z"/>
    </g>
</svg>
